<?xml version="1.0" encoding="UTF-8"?>
<svg id="_Слой_1" data-name="Слой_1" xmlns="http://www.w3.org/2000/svg" version="1.1" viewBox="0 0 841.89 595.28">
  <!-- Generator: Adobe Illustrator 29.1.0, SVG Export Plug-In . SVG Version: 2.1.0 Build 142)  -->
  <path d="M385.01,26.71c15.64,16.82,34.38,40.41,50.77,71.36,11.6,21.92,19.34,42.45,24.59,59.89,3.8-7.74,9.87-18.44,19.31-29.61,8.81-10.43,17.1-17.2,28.45-25.82,13.82-10.5,32.52-24.01,55.89-39.01,4.99,21.87,9.34,49.1,10.26,80.53.87,29.79-1.57,55.94-4.95,77.28,13.62-7.91,30.36-15.94,50.15-22.19,52.4-16.55,98.81-11.99,126.04-6.86-2.17,21.12-8.44,55.85-28.79,93.47-18.29,33.83-40.69,56.55-56.08,69.91,18.64-1.12,56.47-.88,98.5,18.28,39.12,17.83,63.2,43.54,74.85,57.86-106.5,107.84-257.72,137.77-401.54,92.04-1.14-1.72-2.29-3.44-3.43-5.16,3.65.64,8.96,1.52,15.37,2.44,33.48,4.78,106.65,12.85,188.65-8.52,54.32-14.16,104.24-43.45,144.34-82.13-92.05-94.07-231.71-21.89-326.52,30.25,73.81-93.65,236.84-104.98,255.23-241.87-114.31-33.28-178.28,81.07-226.24,162.97,11.84-58.92,51.15-106.06,65.56-164.61,4.93-20.01,6.65-37.75,6.76-38.75,3.1-30.08.77-54.96-1.66-71.14-1.05-5.32-2.1-10.65-3.16-15.97-12.99,7.82-28.89,18.99-45.06,34.59-15.53,14.98-26.94,29.83-35.11,42.14,10.83,53.31,19.31,108.83-.5,161.13,5.14-77.1-12.03-149.88-56.88-212.81-6.73-9.44-29.86-40.98-41.36-37.18-83.98,140.11-61.25,339.75,106.09,402.54-150.13-21.52-192.61-170.56-174.14-303.18-22.7-25.97-51.5-59.39-89.07-59.81-1.97,9.23-3.88,21.25-4.39,35.39,0,0-.6,16.63,1.66,34.43,3.21,25.28,28.22,87.26,76.41,161.68-52.87-68.86-126.69-122.41-218.44-99.93-3.59,4.55,44.24,68.21,51.31,76.28,16.29,18.58,30.02,29.78,43.45,37.49,34.13,19.59,50.27,19.13,90.81,33.52,72.47,25.73,83.68,57.4,174.66,87.98,9.22,3.1,16.79,5.36,21.43,6.7-73.29,6.36-132.15-40.89-195.59-66.24-46.85-18.72-63.52-16.81-112.36-6.09-9.36,2.05-83.96,21.88-84.17,26.3,49.71,87.39,135.47,106.68,230.2,98.59,37.11-3.17,79.7-15.07,79.71-15.07,4.63-1.22,8.42-2.28,10.87-2.98-.79,1.64-1.57,3.28-2.36,4.92-112.15,41.24-220.89,56.08-312.26-35.11-21.44-21.4-41.67-50.55-49.51-62.31-2.78-4.17-5.03-7.68-6.57-10.12,43.81-11.91,87.62-23.83,131.43-35.74-50.38-37.57-90.6-90.94-114.68-148.7,55.37-35.81,115.45-31.07,172.6-2.61-10.98-48.25-8.64-98.16-6.68-147.43,21.19,3.98,54.14,13.34,86.52,37.53,12.5,9.34,22.55,19.13,30.51,28.14,5.9-23.67,13.87-42.46,20.5-55.81,7.2-14.48,15.82-31.54,32.54-49.67,9.8-10.62,19.23-18.21,26.1-23.19Z"/>
</svg>